<svg version="1" xmlns="http://www.w3.org/2000/svg" width="346.667" height="346.667" viewBox="0 0 260.000000 260.000000"><path d="M152.8 30.5c-.2.1-3.1.5-6.6.8C118 34 83.5 54.4 63.8 80.2c-9.7 12.6-19.2 33.1-21.2 45.8-.3 1.9-.9 4.8-1.2 6.5-1.5 7-.7 26.9 1.5 35.9 6.6 27.5 25.6 48.1 52.2 56.5 9.3 3 11.3 3.3 23.5 3.8 10 .5 16.2-.2 28.9-3.1 9-2 25.5-10.1 34.2-16.9 12.7-9.8 23.9-30.7 19.1-35.5-2-2-4.5-1.4-11.5 3.1-27.4 17.6-59.6 17.5-77.3-.2-14.3-14.3-16.1-37.1-4.8-61.1 10.9-23 31-40.5 53.8-46.6 6.4-1.7 18.4-2.2 32.8-1.4 5.7.3 6.5.1 9.1-2.4 8.1-7.8 2.5-20.2-12.4-27.6-8-3.9-16.6-5.8-30.4-6.4-3.9-.2-7.1-.3-7.3-.1z"/><path d="M169.9 86c-31 7.8-52.9 43-41.5 66.5 10.8 21.9 44 21.2 66.6-1.4 7.5-7.5 10.9-13 14-22.1 6.2-18.3.8-34.1-14-41.2-5.1-2.4-18.8-3.4-25.1-1.8zm10.6 21.4c1.3.9 3.6 3.1 5 5 2.2 2.9 2.7 4.6 2.7 9.3.1 16-16.5 30.6-29.2 25.6-6.9-2.7-10.2-7.9-10.3-15.7-.1-17.1 19.6-32.2 31.8-24.2z"/></svg>